<svg height="512" viewBox="0 0 176 176" width="512" xmlns="http://www.w3.org/2000/svg" xmlns:xlink="http://www.w3.org/1999/xlink"><linearGradient id="linear-gradient" gradientUnits="userSpaceOnUse" x1="25.77" x2="150.23" y1="25.77" y2="150.23"><stop offset="0" stop-color="#03a9f4"/><stop offset=".73" stop-color="#0a62b8"/><stop offset="1" stop-color="#0d47a1"/></linearGradient><linearGradient id="linear-gradient-2" gradientUnits="userSpaceOnUse" x1="34.26" x2="141.74" y1="34.26" y2="141.74"><stop offset="0" stop-color="#0d47a1"/><stop offset=".27" stop-color="#0a62b8"/><stop offset="1" stop-color="#03a9f4"/></linearGradient><linearGradient id="linear-gradient-3" gradientUnits="userSpaceOnUse" x1="81.87" x2="144.75" y1="75.84" y2="138.72"><stop offset="0" stop-color="#0d47a1"/><stop offset=".54" stop-color="#0d47a1" stop-opacity=".44"/><stop offset="1" stop-color="#0d47a1" stop-opacity="0"/></linearGradient><linearGradient id="linear-gradient-4" x1="69.8" x2="81.21" xlink:href="#linear-gradient-3" y1="90.06" y2="101.46"/><g id="Layer_2" data-name="Layer 2"><g id="Color"><g id="_01.Facebook" data-name="01.Facebook"><g id="Background"><circle id="Background_01" cx="88" cy="88" fill="url(#linear-gradient)" r="88"/><circle id="Background_02" cx="88" cy="88" fill="url(#linear-gradient-2)" r="76"/></g><g id="Shadow"><path d="m162.69 102.06a76.09 76.09 0 0 1 -51 58.18l-32.6-32.58a2.5 2.5 0 0 0 1.45.34h12.52c1.72 0 2.26-.55 2.26-2.29v-32.54h11.68c1.65 0 2.17-.52 2.17-2.15q0-6 0-12.06c0-1.65-.56-2.21-2.2-2.21h-11.62c0-3.08 0-6 0-9 0-2.8 1.43-4.13 4.14-4.13s5.37-.09 8.06-.11c1.44 0 2-.6 2-2 0-3.8 0-7.61 0-11.41a2.12 2.12 0 0 0 -.45-1.5z" fill="url(#linear-gradient-3)"/><path d="m78.44 93.17v11.06l-11.44-11.4a2.62 2.62 0 0 0 1.46.34z" fill="url(#linear-gradient-4)"/></g><path id="Icon" d="m78.44 93.17h-9.94c-1.56 0-2.12-.57-2.12-2.14q0-6.07 0-12.13c0-1.56.59-2.15 2.13-2.15h9.93v-8.75a21.89 21.89 0 0 1 2.73-11.26 16.51 16.51 0 0 1 8.93-7.42 21.91 21.91 0 0 1 7.65-1.32h9.83c1.41 0 2 .62 2 2v11.41c0 1.43-.6 2-2 2-2.69 0-5.38 0-8.06.11s-4.14 1.33-4.14 4.13c-.06 3 0 5.94 0 9h11.58c1.64 0 2.2.56 2.2 2.21q0 6 0 12.06c0 1.63-.52 2.14-2.17 2.15h-11.67v32.54c0 1.74-.54 2.29-2.26 2.29h-12.52c-1.51 0-2.1-.59-2.1-2.1z" fill="#fff"/></g></g></g></svg>