<svg id="Artboard_30" enable-background="new 0 0 64 64" height="512" viewBox="0 0 64 64" width="512" xmlns="http://www.w3.org/2000/svg"><g><path d="m58 7h-3v-.75c0-2.895-2.331-5.25-5.195-5.25h-34.61c-2.78 0-5.038 2.223-5.17 5h-.025c-.242 0-.477.088-.658.248l-8 7c-.218.19-.342.463-.342.752v43.51c0 3.027 2.427 5.49 5.41 5.49h34.18c3.107 0 5.364-2.099 5.403-5h12.007c2.757 0 5-2.447 5-5.456v-40.089c0-3.008-2.243-5.455-5-5.455zm-49 2.204v2.796c0 .551-.448 1-1 1h-3.339zm35 48.722c0 1.81-1.402 3.074-3.41 3.074h-34.18c-1.88 0-3.41-1.565-3.41-3.49v-42.51h5c1.654 0 3-1.346 3-3v-4h29.59c1.88 0 3.41 1.565 3.41 3.49zm-3.41-51.926h-28.565c.128-1.674 1.493-3 3.17-3h34.609c1.762 0 3.196 1.458 3.196 3.25v42.499c0 1.793-1.434 3.251-3.195 3.251h-3.805v-40.51c0-3.027-2.427-5.49-5.41-5.49zm20.41 46.544c0 1.906-1.346 3.456-3 3.456h-12v-2h3.805c2.864 0 5.195-2.355 5.195-5.251v-39.749h3c1.654 0 3 1.55 3 3.455z"/><path d="m15.627 28.232c-1.008-.77-2.263-1.232-3.627-1.232-3.309 0-6 2.691-6 6s2.691 6 6 6 6-2.691 6-6c0-1.22-.368-2.354-.996-3.302l1.754-2.047-1.518-1.302zm.373 4.768c0 2.206-1.794 4-4 4s-4-1.794-4-4 1.794-4 4-4c.867 0 1.665.284 2.321.755l-2.378 2.774-1.237-1.237-1.414 1.415 2.001 2c.187.188.442.293.707.293.013 0 .025 0 .038-.001.278-.01.54-.137.721-.348l2.857-3.334c.24.514.384 1.08.384 1.683z"/><path d="m17.241 41.349-1.614 1.883c-1.008-.77-2.263-1.232-3.627-1.232-3.309 0-6 2.691-6 6s2.691 6 6 6 6-2.691 6-6c0-1.22-.368-2.354-.996-3.302l1.754-2.047zm-1.241 6.651c0 2.206-1.794 4-4 4s-4-1.794-4-4 1.794-4 4-4c.867 0 1.665.284 2.321.755l-2.378 2.774-1.237-1.237-1.414 1.415 2.001 2c.187.188.442.293.707.293.013 0 .025 0 .038-.001.278-.01.54-.137.721-.348l2.857-3.334c.24.514.384 1.08.384 1.683z"/><path d="m36.398 48.803c-.13.173-.306.199-.398.199s-.269-.026-.398-.199l-.473-.63c-.508-.677-1.284-1.101-2.129-1.161-.842-.062-1.674.248-2.273.848l-.93.93c-.537.29-1.229.267-1.552.042l-1.124-1.124c-.025-.025-.052-.049-.079-.071-1.021-.822-2.734-.853-3.986-.07-.063.041-.123.087-.177.141l-2.586 2.586 1.414 1.414 2.495-2.495c.537-.291 1.23-.269 1.552-.043l1.125 1.125c.025.025.052.049.08.072 1.021.823 2.734.851 3.985.069.064-.04.124-.087.177-.141l1.02-1.02c.192-.192.444-.288.717-.268.271.02.509.149.672.366l.473.63c.476.635 1.204 1 1.998 1s1.522-.364 1.998-.999l1.801-2.404-1.6-1.2z"/><path d="m36.398 31.803c-.13.173-.306.199-.398.199s-.269-.026-.398-.199l-.473-.63c-.508-.677-1.284-1.101-2.129-1.161-.842-.064-1.674.249-2.273.848l-.93.93c-.537.29-1.229.267-1.552.042l-1.124-1.124c-.025-.025-.052-.049-.079-.071-1.021-.823-2.734-.852-3.986-.07-.063.041-.123.087-.177.141l-2.586 2.586 1.414 1.414 2.495-2.495c.537-.292 1.23-.268 1.552-.043l1.125 1.125c.025.025.052.049.08.072 1.021.823 2.734.851 3.985.069.064-.04.124-.087.177-.141l1.02-1.02c.192-.191.444-.285.717-.268.271.02.509.149.672.366l.473.63c.476.635 1.204 1 1.998 1s1.522-.364 1.998-.999l1.801-2.404-1.6-1.2z"/><path d="m19 14h-4c-.553 0-1 .448-1 1v4c0 .552.447 1 1 1h4c.553 0 1-.448 1-1v-4c0-.552-.447-1-1-1zm-1 4h-2v-2h2z"/><path d="m23 20h4c.553 0 1-.448 1-1v-4c0-.552-.447-1-1-1h-4c-.553 0-1 .448-1 1v4c0 .552.447 1 1 1zm1-4h2v2h-2z"/><path d="m31 20h4c.553 0 1-.448 1-1v-4c0-.552-.447-1-1-1h-4c-.553 0-1 .448-1 1v4c0 .552.447 1 1 1zm1-4h2v2h-2z"/></g></svg>