<svg id="Layer_1" enable-background="new 0 0 512.507 512.507" height="512" viewBox="0 0 512.507 512.507" width="512" xmlns="http://www.w3.org/2000/svg"><g><circle cx="99.711" cy="315.672" r="15"/><circle cx="99.711" cy="377.163" r="15"/><circle cx="99.711" cy="438.654" r="15"/><circle cx="414.38" cy="315.672" r="15"/><circle cx="414.38" cy="377.163" r="15"/><circle cx="414.38" cy="438.654" r="15"/><path d="m299.88 302.672h-87.761c-8.284 0-15 6.716-15 15s6.716 15 15 15h87.761c8.284 0 15-6.716 15-15s-6.715-15-15-15z"/></g><path d="m497.507 482.375h-14.114v-215.97h13.614c5.72 0 10.942-3.253 13.464-8.387 2.521-5.134 1.904-11.255-1.593-15.782-10.904-14.118-10.904-33.837 0-47.955 3.497-4.527 4.114-10.648 1.593-15.782-2.522-5.134-7.744-8.387-13.464-8.387h-30.922l-195.429-59.269v-27.293h71.791c5.493 0 10.546-3.002 13.173-7.826s2.407-10.698-.573-15.312l-11.929-18.469 11.969-18.735c2.95-4.617 3.147-10.476.515-15.282s-7.676-7.793-13.155-7.793h-86.791c-8.284 0-15 6.716-15 15v95.721l-194.74 59.258h-30.916c-5.61 0-10.752 3.131-13.327 8.116-2.575 4.985-2.153 10.99 1.094 15.565l1.253 1.766c9.635 13.578 9.635 31.823 0 45.401l-1.253 1.766c-3.247 4.575-3.669 10.58-1.094 15.565s7.716 8.116 13.327 8.116h13.607v215.969h-13.107c-8.284 0-15 6.716-15 15s6.716 15 15 15h482.007c8.284 0 15-6.716 15-15s-6.716-15.001-15-15.001zm-226.851-452.243h44.409l-2.415 3.779c-3.16 4.947-3.145 11.283.04 16.214l2.212 3.425h-44.247v-23.418zm-14.993 107.513 107.051 32.466h-213.745zm-207.618 62.466c.032 0 .064.004.097.004.035 0 .071-.004.107-.004h415.51c.036 0 .072.004.107.004.032 0 .064-.004.097-.004h9.154c-3.218 11.872-3.218 24.422 0 36.294h-434.289c3.215-11.872 3.215-24.422 0-36.294zm10.562 282.264v-215.97h80.963v215.969h-80.963zm168.512 0v-59.213c0-15.925 12.956-28.88 28.881-28.88s28.88 12.956 28.88 28.88v59.213zm87.761 0v-59.213c0-32.467-26.414-58.88-58.88-58.88s-58.881 26.414-58.881 58.88v59.213h-27.548v-215.97h175.187v215.969h-29.878zm59.878 0v-215.97h78.635v215.969h-78.635z"/></svg>